<?xml version="1.0" encoding="UTF-8" standalone="no"?>
<!DOCTYPE svg PUBLIC "-//W3C//DTD SVG 1.1//EN"
 "http://www.w3.org/Graphics/SVG/1.1/DTD/svg11.dtd">
<!-- Generated by graphviz version 12.2.1 (20241206.2353)
 -->
<!-- Pages: 1 -->
<svg width="138pt" height="622pt"
 viewBox="0.00 0.00 138.00 621.75" xmlns="http://www.w3.org/2000/svg" xmlns:xlink="http://www.w3.org/1999/xlink">
<g id="graph0" class="graph" transform="scale(1 1) rotate(0) translate(4 617.75)">
<polygon fill="white" stroke="none" points="-4,4 -4,-617.75 134,-617.75 134,4 -4,4"/>
<!-- 4745645088 -->
<g id="node1" class="node">
<title>4745645088</title>
<polygon fill="#caff70" stroke="black" points="77,-33.5 23,-33.5 23,0 77,0 77,-33.5"/>
<text text-anchor="middle" x="50" y="-20" font-family="monospace" font-size="10.00">loss</text>
<text text-anchor="middle" x="50" y="-7.25" font-family="monospace" font-size="10.00"> ()</text>
</g>
<!-- 4743741552 -->
<g id="node2" class="node">
<title>4743741552</title>
<polygon fill="lightgrey" stroke="black" points="94,-90.25 6,-90.25 6,-69.5 94,-69.5 94,-90.25"/>
<text text-anchor="middle" x="50" y="-76.75" font-family="monospace" font-size="10.00">NegBackward0</text>
</g>
<!-- 4743741552&#45;&gt;4745645088 -->
<g id="edge11" class="edge">
<title>4743741552&#45;&gt;4745645088</title>
<path fill="none" stroke="black" d="M50,-69.05C50,-62.63 50,-53.9 50,-45.45"/>
<polygon fill="black" stroke="black" points="53.5,-45.5 50,-35.5 46.5,-45.5 53.5,-45.5"/>
</g>
<!-- 4743742512 -->
<g id="node3" class="node">
<title>4743742512</title>
<polygon fill="lightgrey" stroke="black" points="97,-147 3,-147 3,-126.25 97,-126.25 97,-147"/>
<text text-anchor="middle" x="50" y="-133.5" font-family="monospace" font-size="10.00">MeanBackward0</text>
</g>
<!-- 4743742512&#45;&gt;4743741552 -->
<g id="edge1" class="edge">
<title>4743742512&#45;&gt;4743741552</title>
<path fill="none" stroke="black" d="M50,-125.84C50,-119.22 50,-110.22 50,-102.02"/>
<polygon fill="black" stroke="black" points="53.5,-102.09 50,-92.09 46.5,-102.09 53.5,-102.09"/>
</g>
<!-- 4743743568 -->
<g id="node4" class="node">
<title>4743743568</title>
<polygon fill="lightgrey" stroke="black" points="94,-203.75 6,-203.75 6,-183 94,-183 94,-203.75"/>
<text text-anchor="middle" x="50" y="-190.25" font-family="monospace" font-size="10.00">LogBackward0</text>
</g>
<!-- 4743743568&#45;&gt;4743742512 -->
<g id="edge2" class="edge">
<title>4743743568&#45;&gt;4743742512</title>
<path fill="none" stroke="black" d="M50,-182.59C50,-175.97 50,-166.97 50,-158.77"/>
<polygon fill="black" stroke="black" points="53.5,-158.84 50,-148.84 46.5,-158.84 53.5,-158.84"/>
</g>
<!-- 4743745008 -->
<g id="node5" class="node">
<title>4743745008</title>
<polygon fill="lightgrey" stroke="black" points="100,-260.5 0,-260.5 0,-239.75 100,-239.75 100,-260.5"/>
<text text-anchor="middle" x="50" y="-247" font-family="monospace" font-size="10.00">IndexBackward0</text>
</g>
<!-- 4743745008&#45;&gt;4743743568 -->
<g id="edge3" class="edge">
<title>4743745008&#45;&gt;4743743568</title>
<path fill="none" stroke="black" d="M50,-239.34C50,-232.72 50,-223.72 50,-215.52"/>
<polygon fill="black" stroke="black" points="53.5,-215.59 50,-205.59 46.5,-215.59 53.5,-215.59"/>
</g>
<!-- 4743741696 -->
<g id="node6" class="node">
<title>4743741696</title>
<polygon fill="lightgrey" stroke="black" points="94,-317.25 6,-317.25 6,-296.5 94,-296.5 94,-317.25"/>
<text text-anchor="middle" x="50" y="-303.75" font-family="monospace" font-size="10.00">DivBackward0</text>
</g>
<!-- 4743741696&#45;&gt;4743745008 -->
<g id="edge4" class="edge">
<title>4743741696&#45;&gt;4743745008</title>
<path fill="none" stroke="black" d="M50,-296.09C50,-289.47 50,-280.47 50,-272.27"/>
<polygon fill="black" stroke="black" points="53.5,-272.34 50,-262.34 46.5,-272.34 53.5,-272.34"/>
</g>
<!-- 4729419136 -->
<g id="node7" class="node">
<title>4729419136</title>
<polygon fill="lightgrey" stroke="black" points="94,-430.75 6,-430.75 6,-410 94,-410 94,-430.75"/>
<text text-anchor="middle" x="50" y="-417.25" font-family="monospace" font-size="10.00">ExpBackward0</text>
</g>
<!-- 4729419136&#45;&gt;4743741696 -->
<g id="edge5" class="edge">
<title>4729419136&#45;&gt;4743741696</title>
<path fill="none" stroke="black" d="M45.15,-409.58C40.99,-400.58 35.31,-386.75 33,-374 31.36,-364.93 31.36,-362.32 33,-353.25 34.53,-344.78 37.55,-335.84 40.63,-328.15"/>
<polygon fill="black" stroke="black" points="43.8,-329.63 44.55,-319.06 37.38,-326.86 43.8,-329.63"/>
</g>
<!-- 4743744576 -->
<g id="node11" class="node">
<title>4743744576</title>
<polygon fill="lightgrey" stroke="black" points="130,-374 42,-374 42,-353.25 130,-353.25 130,-374"/>
<text text-anchor="middle" x="86" y="-360.5" font-family="monospace" font-size="10.00">SumBackward1</text>
</g>
<!-- 4729419136&#45;&gt;4743744576 -->
<g id="edge10" class="edge">
<title>4729419136&#45;&gt;4743744576</title>
<path fill="none" stroke="black" d="M56.44,-409.59C61.15,-402.42 67.69,-392.48 73.42,-383.76"/>
<polygon fill="black" stroke="black" points="76.22,-385.87 78.79,-375.59 70.37,-382.03 76.22,-385.87"/>
</g>
<!-- 4739303456 -->
<g id="node8" class="node">
<title>4739303456</title>
<polygon fill="lightgrey" stroke="black" points="91,-487.5 9,-487.5 9,-466.75 91,-466.75 91,-487.5"/>
<text text-anchor="middle" x="50" y="-474" font-family="monospace" font-size="10.00">MmBackward0</text>
</g>
<!-- 4739303456&#45;&gt;4729419136 -->
<g id="edge6" class="edge">
<title>4739303456&#45;&gt;4729419136</title>
<path fill="none" stroke="black" d="M50,-466.34C50,-459.72 50,-450.72 50,-442.52"/>
<polygon fill="black" stroke="black" points="53.5,-442.59 50,-432.59 46.5,-442.59 53.5,-442.59"/>
</g>
<!-- 4739309168 -->
<g id="node9" class="node">
<title>4739309168</title>
<polygon fill="lightgrey" stroke="black" points="100,-544.25 0,-544.25 0,-523.5 100,-523.5 100,-544.25"/>
<text text-anchor="middle" x="50" y="-530.75" font-family="monospace" font-size="10.00">AccumulateGrad</text>
</g>
<!-- 4739309168&#45;&gt;4739303456 -->
<g id="edge7" class="edge">
<title>4739309168&#45;&gt;4739303456</title>
<path fill="none" stroke="black" d="M50,-523.09C50,-516.47 50,-507.47 50,-499.27"/>
<polygon fill="black" stroke="black" points="53.5,-499.34 50,-489.34 46.5,-499.34 53.5,-499.34"/>
</g>
<!-- 4745649968 -->
<g id="node10" class="node">
<title>4745649968</title>
<polygon fill="lightblue" stroke="black" points="85,-613.75 15,-613.75 15,-580.25 85,-580.25 85,-613.75"/>
<text text-anchor="middle" x="50" y="-600.25" font-family="monospace" font-size="10.00">W</text>
<text text-anchor="middle" x="50" y="-587.5" font-family="monospace" font-size="10.00"> (28, 28)</text>
</g>
<!-- 4745649968&#45;&gt;4739309168 -->
<g id="edge8" class="edge">
<title>4745649968&#45;&gt;4739309168</title>
<path fill="none" stroke="black" d="M50,-579.94C50,-572.6 50,-563.82 50,-555.96"/>
<polygon fill="black" stroke="black" points="53.5,-556.23 50,-546.23 46.5,-556.23 53.5,-556.23"/>
</g>
<!-- 4743744576&#45;&gt;4743741696 -->
<g id="edge9" class="edge">
<title>4743744576&#45;&gt;4743741696</title>
<path fill="none" stroke="black" d="M79.56,-352.84C74.85,-345.67 68.31,-335.73 62.58,-327.01"/>
<polygon fill="black" stroke="black" points="65.63,-325.28 57.21,-318.84 59.78,-329.12 65.63,-325.28"/>
</g>
</g>
</svg>
